# xmcd
#
# Track frame offsets:
#	150
#	24977
#	48667
#	68322
#	86030
#	103327
#	122627
#	138342
#	161284
#	180600
#
# Disc length: 2783 seconds
#
# Revision: 0
# Processed by: cddbd v1.5.1PL0 Copyright (c) Steve Scherf et al.
# Submitted via: dBpowerAMP V4.0
#
DISCID=7c0add0a
DTITLE=Denise LaSalle - Still The Queen
DYEAR=2002
DGENRE=Blues
TTITLE0=I'm Still The Queen
TTITLE1=Dirty, Freaky Man
TTITLE2=You Should Have Keep It In The Bed Room
TTITLE3=What Kind Of Man Is This
TTITLE4=Funky Blues Kind Of Mood
TTITLE5=Cover It Up
TTITLE6=Who Needs You
TTITLE7=In A Midnight Mood In The MIddle Of The Day
TTITLE8=Unlovalbe Habits
TTITLE9=There's No Separation
EXTD=
EXTT0=
EXTT1=
EXTT2=
EXTT3=
EXTT4=
EXTT5=
EXTT6=
EXTT7=
EXTT8=
EXTT9=
PLAYORDER=
